<svg xmlns="http://www.w3.org/2000/svg" viewBox="0 0 16 16">
	<path d="m 8.3240804,6.247 c 0.11,-0.33 0.5760005,-0.33 0.6860005,0 l 0.6450005,1.937 a 2.89,2.89 0 0 0 1.8289986,1.828 l 1.936,0.644999 c 0.33,0.11 0.33,0.576 0,0.686 l -1.937,0.645 a 2.89,2.89 0 0 0 -1.8279986,1.829 l -0.6450005,1.936 a 0.361,0.361 0 0 1 -0.6860005,0 l -0.645,-1.937 a 2.89,2.89 0 0 0 -1.828,-1.828 l -1.937,-0.645 a 0.361,0.361 0 0 1 0,-0.686 l 1.937,-0.644999 a 2.89,2.89 0 0 0 1.828,-1.828 z" fill="#1951a0" />
	<path d="m 2.7947871,2.4738679 a 0.217,0.217 0 0 1 0.412,0 l 0.387,1.162 c 0.173,0.518 0.579,0.924 1.097,1.097 l 1.162,0.387 a 0.217,0.217 0 0 1 0,0.412 l -1.162,0.387 a 1.73,1.73 0 0 0 -1.097,1.097 l -0.387,1.162 a 0.217,0.217 0 0 1 -0.412,0 l -0.387,-1.162 a 1.73,1.73 0 0 0 -1.097,-1.097 l -1.162,-0.387 a 0.217,0.217 0 0 1 0,-0.412 l 1.162,-0.387 a 1.73,1.73 0 0 0 1.097,-1.097 z" fill="#45b384" />
	<path d="m 12.461029,0.13989833 a 0.20286294,0.20804832 0 0 1 0.383341,0 L 13.205327,1.250446 c 0.160891,0.4964464 0.540035,0.8852815 1.024108,1.0502853 l 1.082868,0.3701826 a 0.20286294,0.20804832 0 0 1 0,0.3931396 L 14.229435,3.434236 A 1.6229035,1.6643866 0 0 0 13.205327,4.4845213 L 12.84437,5.5950689 a 0.20286294,0.20804832 0 0 1 -0.383341,0 L 12.100073,4.4845213 A 1.6229035,1.6643866 0 0 0 11.075965,3.434236 L 9.9944964,3.0640535 a 0.20286294,0.20804832 0 0 1 0,-0.3931396 L 11.077364,2.3007313 C 11.561437,2.1357275 11.940581,1.7468924 12.101472,1.250446 Z" fill="#f7a833" />
</svg>
